<svg width="46" height="46" viewBox="0 0 46 46" fill="none" xmlns="http://www.w3.org/2000/svg">
<g clip-path="url(#clip0_5_18)">
<path d="M13.4163 46.0012C15.5334 46.0012 17.2497 44.285 17.2497 42.1679C17.2497 40.0508 15.5334 38.3346 13.4163 38.3346C11.2992 38.3346 9.58301 40.0508 9.58301 42.1679C9.58301 44.285 11.2992 46.0012 13.4163 46.0012Z" fill="black"/>
<path d="M32.5833 46.0012C34.7004 46.0012 36.4167 44.285 36.4167 42.1679C36.4167 40.0508 34.7004 38.3346 32.5833 38.3346C30.4662 38.3346 28.75 40.0508 28.75 42.1679C28.75 44.285 30.4662 46.0012 32.5833 46.0012Z" fill="black"/>
<path d="M44.0527 11.5345C42.7035 10.2444 40.8973 9.5426 39.031 9.58333H10.8368L10.3327 5.63117C10.1497 4.08 9.40389 2.6499 8.23668 1.61199C7.06948 0.574077 5.56202 0.00050193 4.00008 0L2.875 0C2.1125 0 1.38124 0.302901 0.842068 0.842068C0.302901 1.38124 0 2.1125 0 2.875H0C0 3.6375 0.302901 4.36876 0.842068 4.90793C1.38124 5.4471 2.1125 5.75 2.875 5.75H4.00008C4.15688 5.75168 4.3075 5.81137 4.42288 5.91755C4.53827 6.02373 4.61024 6.16888 4.62492 6.325L7.49992 28.8631C7.68125 30.4155 8.42638 31.8472 9.59381 32.8863C10.7612 33.9255 12.2697 34.4997 13.8326 34.5H33.2331C35.5409 34.4986 37.7845 33.74 39.6195 32.3405C41.4545 30.9411 42.7796 28.9781 43.3914 26.7528L45.7796 18.0684C46.0979 16.9241 46.1058 15.7156 45.8023 14.5673C45.4988 13.4189 44.8949 12.3721 44.0527 11.5345ZM37.8542 25.2291C37.5735 26.2398 36.97 27.1309 36.1357 27.7666C35.3014 28.4023 34.282 28.7477 33.2331 28.75H13.8326C13.6759 28.7487 13.5252 28.6891 13.4101 28.5828C13.2949 28.4765 13.2235 28.3311 13.2097 28.175L11.5709 15.3333H39.3185C39.4665 15.3322 39.6128 15.3654 39.7459 15.4303C39.8789 15.4952 39.9951 15.5901 40.0854 15.7074C40.1756 15.8248 40.2374 15.9615 40.266 16.1067C40.2946 16.252 40.2891 16.4019 40.25 16.5447L37.8542 25.2291Z" fill="black"/>
</g>
<defs>
<clipPath id="clip0_5_18">
<rect width="46" height="46" fill="white"/>
</clipPath>
</defs>
</svg>
