<svg width="45" height="45" viewBox="0 0 45 45" fill="none" xmlns="http://www.w3.org/2000/svg">
<g clip-path="url(#clip0_5_16)">
<path d="M44.1775 40.2101L35.4678 31.4968C41.9848 22.7879 40.2079 10.4447 31.4989 3.92776C22.7899 -2.58921 10.4468 -0.812248 3.92985 7.8967C-2.58713 16.6057 -0.810161 28.9488 7.89879 35.4658C14.8945 40.7007 24.5031 40.7007 31.4989 35.4658L40.2122 44.1791C41.3072 45.2741 43.0825 45.2741 44.1774 44.1791C45.2724 43.0841 45.2724 41.3088 44.1774 40.2139L44.1775 40.2101ZM19.7715 33.784C12.0314 33.784 5.75683 27.5095 5.75683 19.7694C5.75683 12.0293 12.0314 5.75474 19.7715 5.75474C27.5116 5.75474 33.7861 12.0293 33.7861 19.7694C33.7779 27.506 27.5081 33.7758 19.7715 33.784Z" fill="black"/>
</g>
<defs>
<clipPath id="clip0_5_16">
<rect width="45" height="45" fill="white"/>
</clipPath>
</defs>
</svg>
