<svg width="39" height="74" viewBox="0 0 39 74" fill="none" xmlns="http://www.w3.org/2000/svg">
<ellipse cx="19.8344" cy="17.09" rx="19.0102" ry="16.1857" fill="#07161D"/>
<ellipse cx="19.654" cy="57.8089" rx="19.0102" ry="16.1857" fill="#07161D"/>
<path d="M26.3537 53.7734C25.9666 53.4374 25.507 53.1708 25.0012 52.9889C24.4953 52.807 23.9531 52.7134 23.4056 52.7134C22.858 52.7134 22.3158 52.807 21.81 52.9889C21.3041 53.1708 20.8445 53.4374 20.4575 53.7734L19.6541 54.4705L18.8508 53.7734C18.0689 53.0949 17.0084 52.7138 15.9027 52.7138C14.7969 52.7138 13.7364 53.0949 12.9545 53.7734C12.1727 54.4518 11.7334 55.372 11.7334 56.3315C11.7334 57.291 12.1727 58.2111 12.9545 58.8896L13.7579 59.5867L19.6541 64.7029L25.5503 59.5867L26.3537 58.8896C26.741 58.5537 27.0482 58.1549 27.2578 57.716C27.4674 57.2771 27.5752 56.8066 27.5752 56.3315C27.5752 55.8564 27.4674 55.3859 27.2578 54.947C27.0482 54.5081 26.741 54.1093 26.3537 53.7734V53.7734Z" stroke="white" stroke-width="1.5" stroke-linecap="round" stroke-linejoin="round"/>
<g clip-path="url(#clip0_14_844)">
<path d="M16.7983 24.6584C17.26 24.6584 17.6344 24.3396 17.6344 23.9465C17.6344 23.5533 17.26 23.2346 16.7983 23.2346C16.3365 23.2346 15.9622 23.5533 15.9622 23.9465C15.9622 24.3396 16.3365 24.6584 16.7983 24.6584Z" stroke="white" stroke-width="1.5" stroke-linecap="round" stroke-linejoin="round"/>
<path d="M25.9953 24.6584C26.457 24.6584 26.8314 24.3396 26.8314 23.9465C26.8314 23.5533 26.457 23.2346 25.9953 23.2346C25.5335 23.2346 25.1592 23.5533 25.1592 23.9465C25.1592 24.3396 25.5335 24.6584 25.9953 24.6584Z" stroke="white" stroke-width="1.5" stroke-linecap="round" stroke-linejoin="round"/>
<path d="M10.1096 9.70905H13.454L15.6947 19.241C15.7712 19.5688 15.9806 19.8632 16.2863 20.0727C16.592 20.2822 16.9746 20.3935 17.3669 20.3871H25.4938C25.8862 20.3935 26.2687 20.2822 26.5744 20.0727C26.8801 19.8632 27.0895 19.5688 27.166 19.241L28.5038 13.2684H14.2901" stroke="white" stroke-width="1.5" stroke-linecap="round" stroke-linejoin="round"/>
</g>
<defs>
<clipPath id="clip0_14_844">
<rect width="20.0663" height="17.0849" fill="white" transform="translate(9.27344 8.99719)"/>
</clipPath>
</defs>
</svg>
