<svg width="39" height="74" viewBox="0 0 39 74" fill="none" xmlns="http://www.w3.org/2000/svg">
<ellipse cx="19.7348" cy="16.7167" rx="19.0102" ry="16.1857" fill="#07161D"/>
<ellipse cx="19.5544" cy="57.4355" rx="19.0102" ry="16.1857" fill="#07161D"/>
<path d="M26.2541 53.3998C25.867 53.0638 25.4074 52.7972 24.9016 52.6153C24.3957 52.4335 23.8535 52.3398 23.306 52.3398C22.7584 52.3398 22.2162 52.4335 21.7104 52.6153C21.2045 52.7972 20.7449 53.0638 20.3579 53.3998L19.5545 54.0969L18.7512 53.3998C17.9693 52.7213 16.9088 52.3402 15.8031 52.3402C14.6973 52.3402 13.6368 52.7213 12.8549 53.3998C12.073 54.0782 11.6338 54.9984 11.6338 55.9579C11.6338 56.9174 12.073 57.8376 12.8549 58.516L13.6583 59.2131L19.5545 64.3293L25.4507 59.2131L26.2541 58.516C26.6413 58.1801 26.9486 57.7813 27.1582 57.3424C27.3678 56.9035 27.4756 56.433 27.4756 55.9579C27.4756 55.4828 27.3678 55.0123 27.1582 54.5734C26.9486 54.1345 26.6413 53.7357 26.2541 53.3998V53.3998Z" stroke="white" stroke-width="1.5" stroke-linecap="round" stroke-linejoin="round"/>
<g clip-path="url(#clip0_14_1006)">
<path d="M16.6986 24.2853C17.1604 24.2853 17.5347 23.9666 17.5347 23.5734C17.5347 23.1803 17.1604 22.8616 16.6986 22.8616C16.2369 22.8616 15.8625 23.1803 15.8625 23.5734C15.8625 23.9666 16.2369 24.2853 16.6986 24.2853Z" stroke="white" stroke-width="1.5" stroke-linecap="round" stroke-linejoin="round"/>
<path d="M25.8957 24.2853C26.3574 24.2853 26.7318 23.9666 26.7318 23.5734C26.7318 23.1803 26.3574 22.8616 25.8957 22.8616C25.4339 22.8616 25.0596 23.1803 25.0596 23.5734C25.0596 23.9666 25.4339 24.2853 25.8957 24.2853Z" stroke="white" stroke-width="1.5" stroke-linecap="round" stroke-linejoin="round"/>
<path d="M10.01 9.33594H13.3544L15.5951 18.8679C15.6716 19.1957 15.881 19.4901 16.1867 19.6996C16.4924 19.9091 16.875 20.0204 17.2673 20.014H25.3942C25.7866 20.0204 26.1691 19.9091 26.4748 19.6996C26.7805 19.4901 26.9899 19.1957 27.0664 18.8679L28.4041 12.8953H14.1905" stroke="white" stroke-width="1.5" stroke-linecap="round" stroke-linejoin="round"/>
</g>
<defs>
<clipPath id="clip0_14_1006">
<rect width="20.0663" height="17.0849" fill="white" transform="translate(9.17383 8.62402)"/>
</clipPath>
</defs>
</svg>
