<svg width="31" height="71" viewBox="0 0 31 71" fill="none" xmlns="http://www.w3.org/2000/svg">
<ellipse cx="15.4255" cy="16.2407" rx="15.1828" ry="15.323" fill="#07161D"/>
<ellipse cx="15.281" cy="54.7892" rx="15.1828" ry="15.323" fill="#07161D"/>
<path d="M20.6318 50.9688C20.3227 50.6507 19.9556 50.3983 19.5516 50.2261C19.1476 50.054 18.7146 49.9653 18.2772 49.9653C17.8399 49.9653 17.4069 50.054 17.0029 50.2261C16.5989 50.3983 16.2318 50.6507 15.9227 50.9688L15.2811 51.6287L14.6395 50.9688C14.015 50.3265 13.1681 49.9657 12.2849 49.9657C11.4018 49.9657 10.5548 50.3265 9.93037 50.9688C9.3059 51.6111 8.95508 52.4822 8.95508 53.3905C8.95508 54.2989 9.3059 55.17 9.93037 55.8123L10.572 56.4722L15.2811 61.3157L19.9902 56.4722L20.6318 55.8123C20.9411 55.4943 21.1865 55.1168 21.3539 54.7012C21.5213 54.2857 21.6074 53.8403 21.6074 53.3905C21.6074 52.9407 21.5213 52.4954 21.3539 52.0798C21.1865 51.6643 20.9411 51.2868 20.6318 50.9688V50.9688Z" stroke="white" stroke-width="1.5" stroke-linecap="round" stroke-linejoin="round"/>
<g clip-path="url(#clip0_11_231)">
<path d="M13.0003 23.4055C13.3691 23.4055 13.668 23.1037 13.668 22.7315C13.668 22.3593 13.3691 22.0576 13.0003 22.0576C12.6315 22.0576 12.3325 22.3593 12.3325 22.7315C12.3325 23.1037 12.6315 23.4055 13.0003 23.4055Z" stroke="white" stroke-width="1.5" stroke-linecap="round" stroke-linejoin="round"/>
<path d="M20.3455 23.4055C20.7143 23.4055 21.0133 23.1037 21.0133 22.7315C21.0133 22.3593 20.7143 22.0576 20.3455 22.0576C19.9767 22.0576 19.6777 22.3593 19.6777 22.7315C19.6777 23.1037 19.9767 23.4055 20.3455 23.4055Z" stroke="white" stroke-width="1.5" stroke-linecap="round" stroke-linejoin="round"/>
<path d="M7.6582 9.25305H10.3293L12.1189 18.2769C12.1799 18.5872 12.3472 18.8659 12.5913 19.0643C12.8355 19.2627 13.141 19.368 13.4544 19.362H19.945C20.2584 19.368 20.5639 19.2627 20.8081 19.0643C21.0522 18.8659 21.2195 18.5872 21.2806 18.2769L22.349 12.6227H10.997" stroke="white" stroke-width="1.5" stroke-linecap="round" stroke-linejoin="round"/>
</g>
<defs>
<clipPath id="clip0_11_231">
<rect width="16.0263" height="16.1743" fill="white" transform="translate(6.99023 8.5791)"/>
</clipPath>
</defs>
</svg>
