<svg width="17" height="16" viewBox="0 0 17 16" fill="none" xmlns="http://www.w3.org/2000/svg">
<path d="M13.3546 3.6033C13.065 3.30801 12.7212 3.07377 12.3427 2.91395C11.9642 2.75413 11.5586 2.67187 11.1489 2.67188C10.7392 2.67187 10.3336 2.75413 9.95512 2.91395C9.57666 3.07377 9.2328 3.30801 8.94319 3.6033L8.34214 4.21584L7.7411 3.6033C7.1561 3.00712 6.36268 2.67218 5.53538 2.67218C4.70807 2.67218 3.91465 3.00712 3.32966 3.6033C2.74466 4.19948 2.41602 5.00808 2.41602 5.85121C2.41602 6.69434 2.74466 7.50294 3.32966 8.09912L3.9307 8.71166L8.34214 13.2075L12.7536 8.71166L13.3546 8.09912C13.6444 7.80397 13.8742 7.45353 14.031 7.06783C14.1879 6.68213 14.2686 6.26871 14.2686 5.85121C14.2686 5.43371 14.1879 5.02029 14.031 4.63459C13.8742 4.24889 13.6444 3.89845 13.3546 3.6033V3.6033Z" stroke="white" stroke-linecap="round" stroke-linejoin="round"/>
</svg>
