<svg width="17" height="17" viewBox="0 0 17 17" fill="none" xmlns="http://www.w3.org/2000/svg">
<path d="M13.6768 4.07461C13.3866 3.7787 13.042 3.54397 12.6628 3.38382C12.2835 3.22367 11.877 3.14124 11.4665 3.14124C11.056 3.14124 10.6494 3.22367 10.2702 3.38382C9.89094 3.54397 9.54636 3.7787 9.25614 4.07461L8.65384 4.68843L8.05154 4.07461C7.46533 3.47718 6.67025 3.14155 5.84121 3.14155C5.01218 3.14155 4.2171 3.47718 3.63088 4.07461C3.04466 4.67203 2.71533 5.48232 2.71533 6.32721C2.71533 7.1721 3.04466 7.98239 3.63088 8.57982L4.23318 9.19364L8.65384 13.6989L13.0745 9.19364L13.6768 8.57982C13.9672 8.28405 14.1975 7.93288 14.3546 7.54637C14.5118 7.15986 14.5927 6.74559 14.5927 6.32721C14.5927 5.90884 14.5118 5.49456 14.3546 5.10805C14.1975 4.72154 13.9672 4.37037 13.6768 4.07461V4.07461Z" stroke="white" stroke-linecap="round" stroke-linejoin="round"/>
</svg>
