<svg width="54" height="54" viewBox="0 0 54 54" fill="none" xmlns="http://www.w3.org/2000/svg">
<path d="M29.2102 6.21904C28.4197 5.60422 28.0245 5.29681 27.588 5.17864C27.2029 5.07437 26.7971 5.07437 26.412 5.17864C25.9755 5.29681 25.5803 5.60422 24.7898 6.21903L9.52963 18.0881C8.50955 18.8815 7.99951 19.2782 7.63206 19.775C7.30657 20.215 7.0641 20.7108 6.91656 21.2379C6.75 21.833 6.75 22.4791 6.75 23.7714V40.05C6.75 42.5702 6.75 43.8304 7.24047 44.793C7.6719 45.6397 8.36031 46.3281 9.20704 46.7595C10.1696 47.25 11.4298 47.25 13.95 47.25H18.45C19.0801 47.25 19.3951 47.25 19.6357 47.1274C19.8474 47.0195 20.0195 46.8474 20.1274 46.6357C20.25 46.3951 20.25 46.0801 20.25 45.45V30.6C20.25 29.3399 20.25 28.7098 20.4952 28.2285C20.711 27.8052 21.0552 27.461 21.4785 27.2452C21.9598 27 22.5899 27 23.85 27H30.15C31.4101 27 32.0402 27 32.5215 27.2452C32.9448 27.461 33.289 27.8052 33.5048 28.2285C33.75 28.7098 33.75 29.3399 33.75 30.6V45.45C33.75 46.0801 33.75 46.3951 33.8726 46.6357C33.9805 46.8474 34.1526 47.0195 34.3643 47.1274C34.6049 47.25 34.9199 47.25 35.55 47.25H40.05C42.5702 47.25 43.8304 47.25 44.793 46.7595C45.6397 46.3281 46.3281 45.6397 46.7595 44.793C47.25 43.8304 47.25 42.5702 47.25 40.05V23.7714C47.25 22.4791 47.25 21.833 47.0834 21.2379C46.9359 20.7108 46.6934 20.215 46.3679 19.775C46.0005 19.2782 45.4905 18.8815 44.4704 18.0881L29.2102 6.21904Z" stroke="black" stroke-width="5" stroke-linecap="round" stroke-linejoin="round"/>
</svg>
