<svg width="54" height="54" viewBox="0 0 54 54" fill="none" xmlns="http://www.w3.org/2000/svg">
<rect opacity="0.25" x="0.872559" y="0.5" width="52.2552" height="53" rx="19" stroke="white"/>
<path fill-rule="evenodd" clip-rule="evenodd" d="M22.2211 36.0001H18.1245V23.5386H22.2211V36.0001V36.0001Z" fill="white"/>
<path fill-rule="evenodd" clip-rule="evenodd" d="M20.1606 20.7693H20.1373C18.9148 20.7693 18.1245 19.8458 18.1245 18.6917C18.1245 17.5131 18.9389 16.6155 20.1846 16.6155C21.4303 16.6155 22.1974 17.5131 22.2211 18.6917C22.2211 19.8458 21.4303 20.7693 20.1606 20.7693V20.7693Z" fill="white"/>
<path fill-rule="evenodd" clip-rule="evenodd" d="M37.2416 35.9998H33.2162V29.486C33.2162 27.8499 32.6337 26.7334 31.1764 26.7334C30.0642 26.7334 29.4018 27.4861 29.1108 28.213C29.0044 28.4735 28.9782 28.8365 28.9782 29.2004V36.0001H24.9521C24.9521 36.0001 25.0052 24.9673 24.9521 23.8248H28.9782V25.5493C29.5125 24.7203 30.4695 23.5386 32.6068 23.5386C35.2558 23.5386 37.2418 25.2791 37.2418 29.0188L37.2416 35.9998V35.9998Z" fill="white"/>
</svg>
