<svg width="54" height="54" viewBox="0 0 54 54" fill="none" xmlns="http://www.w3.org/2000/svg">
<rect opacity="0.25" x="0.872406" y="0.5" width="52.2552" height="53" rx="19" stroke="white"/>
<path fill-rule="evenodd" clip-rule="evenodd" d="M22.2207 36H18.1241V23.5385H22.2207V36Z" fill="white"/>
<path fill-rule="evenodd" clip-rule="evenodd" d="M20.1602 20.7693H20.137C18.9145 20.7693 18.1241 19.8458 18.1241 18.6917C18.1241 17.5131 18.9385 16.6155 20.1842 16.6155C21.4299 16.6155 22.1971 17.5131 22.2207 18.6917C22.2207 19.8458 21.4299 20.7693 20.1602 20.7693Z" fill="white"/>
<path fill-rule="evenodd" clip-rule="evenodd" d="M37.2412 35.9997H33.2158V29.4859C33.2158 27.8497 32.6333 26.7333 31.176 26.7333C30.0638 26.7333 29.4014 27.4859 29.1104 28.2129C29.004 28.4734 28.9779 28.8364 28.9779 29.2003V36H24.9518C24.9518 36 25.0048 24.9671 24.9518 23.8247H28.9779V25.5492C29.5121 24.7202 30.4691 23.5385 32.6064 23.5385C35.2554 23.5385 37.2414 25.279 37.2414 29.0187L37.2412 35.9997Z" fill="white"/>
</svg>
