<svg width="16" height="16" viewBox="0 0 16 16" fill="none" xmlns="http://www.w3.org/2000/svg">
<g clip-path="url(#clip0_7_42)">
<path d="M6.04792 13.8001C6.3934 13.8001 6.67347 13.52 6.67347 13.1746C6.67347 12.8291 6.3934 12.549 6.04792 12.549C5.70243 12.549 5.42236 12.8291 5.42236 13.1746C5.42236 13.52 5.70243 13.8001 6.04792 13.8001Z" stroke="white" stroke-linecap="round" stroke-linejoin="round"/>
<path d="M12.9288 13.8001C13.2743 13.8001 13.5543 13.52 13.5543 13.1746C13.5543 12.8291 13.2743 12.549 12.9288 12.549C12.5833 12.549 12.3032 12.8291 12.3032 13.1746C12.3032 13.52 12.5833 13.8001 12.9288 13.8001Z" stroke="white" stroke-linecap="round" stroke-linejoin="round"/>
<path d="M1.04346 0.663513H3.54566L5.22214 9.03965C5.27935 9.32765 5.43602 9.58636 5.66475 9.77048C5.89347 9.95461 6.17967 10.0524 6.47325 10.0468H12.5536C12.8472 10.0524 13.1334 9.95461 13.3621 9.77048C13.5908 9.58636 13.7475 9.32765 13.8047 9.03965L14.8056 3.79127H4.17122" stroke="white" stroke-linecap="round" stroke-linejoin="round"/>
</g>
<defs>
<clipPath id="clip0_7_42">
<rect width="15.0132" height="15.0132" fill="white" transform="translate(0.417969 0.0379639)"/>
</clipPath>
</defs>
</svg>
