<svg width="16" height="16" viewBox="0 0 16 16" fill="none" xmlns="http://www.w3.org/2000/svg">
<g clip-path="url(#clip0_7_55)">
<path d="M6.42569 14.2927C6.77189 14.2927 7.05255 14.0121 7.05255 13.6659C7.05255 13.3197 6.77189 13.039 6.42569 13.039C6.07948 13.039 5.79883 13.3197 5.79883 13.6659C5.79883 14.0121 6.07948 14.2927 6.42569 14.2927Z" stroke="white" stroke-linecap="round" stroke-linejoin="round"/>
<path d="M13.3212 14.2927C13.6674 14.2927 13.9481 14.0121 13.9481 13.6659C13.9481 13.3197 13.6674 13.039 13.3212 13.039C12.975 13.039 12.6943 13.3197 12.6943 13.6659C12.6943 14.0121 12.975 14.2927 13.3212 14.2927Z" stroke="white" stroke-linecap="round" stroke-linejoin="round"/>
<path d="M1.41113 1.12866H3.91857L5.59855 9.5223C5.65587 9.8109 5.81288 10.0702 6.04208 10.2547C6.27128 10.4392 6.55808 10.5372 6.85227 10.5315H12.9453C13.2395 10.5372 13.5263 10.4392 13.7555 10.2547C13.9847 10.0702 14.1417 9.8109 14.1991 9.5223L15.202 4.26296H4.54543" stroke="white" stroke-linecap="round" stroke-linejoin="round"/>
</g>
<defs>
<clipPath id="clip0_7_55">
<rect width="15.0446" height="15.0446" fill="white" transform="translate(0.78418 0.501831)"/>
</clipPath>
</defs>
</svg>
