<svg width="19" height="16" viewBox="0 0 19 16" fill="none" xmlns="http://www.w3.org/2000/svg">
<path fill-rule="evenodd" clip-rule="evenodd" d="M9.11606 4.43633L9.15454 5.09511L8.51321 5.01444C6.17877 4.70522 4.13934 3.65656 2.40775 1.89535L1.56119 1.02147L1.34314 1.66679C0.88138 3.10534 1.17639 4.62455 2.13839 5.64633C2.65145 6.21099 2.53601 6.29166 1.65098 5.95555C1.34314 5.84799 1.07378 5.76732 1.04813 5.80766C0.95834 5.90177 1.26618 7.12521 1.50988 7.6092C1.84337 8.28142 2.52318 8.94019 3.26713 9.33008L3.89563 9.6393L3.15169 9.65275C2.4334 9.65275 2.40775 9.66619 2.4847 9.94852C2.74124 10.8224 3.75454 11.7501 4.88328 12.1534L5.67853 12.4357L4.98589 12.8659C3.95976 13.4844 2.75406 13.8339 1.54836 13.8608C0.971166 13.8743 0.496582 13.9281 0.496582 13.9684C0.496582 14.1028 2.06143 14.8557 2.97212 15.1515C5.70418 16.0254 8.94931 15.6489 11.3864 14.1566C13.118 13.0945 14.8495 10.9837 15.6576 8.94019C16.0937 7.8512 16.5298 5.86144 16.5298 4.90689C16.5298 4.28845 16.5683 4.20778 17.2866 3.46834C17.7099 3.03812 18.1075 2.56757 18.1845 2.43312C18.3127 2.17768 18.2999 2.17768 17.6457 2.40623C16.5555 2.80956 16.4016 2.75579 16.9403 2.15079C17.3379 1.72057 17.8125 0.940799 17.8125 0.712245C17.8125 0.671912 17.6201 0.739134 17.402 0.860133C17.1712 0.994577 16.6581 1.19624 16.2733 1.31724L15.5807 1.5458L14.9522 1.10213C14.6058 0.860133 14.1184 0.591246 13.8619 0.51058C13.2077 0.322359 12.2073 0.349248 11.6172 0.564358C10.0139 1.16935 9.00062 2.7289 9.11606 4.43633Z" fill="white"/>
</svg>
