<svg width="19" height="16" viewBox="0 0 19 16" fill="none" xmlns="http://www.w3.org/2000/svg">
<path fill-rule="evenodd" clip-rule="evenodd" d="M9.11606 4.43645L9.15454 5.09523L8.51321 5.01456C6.17877 4.70534 4.13934 3.65668 2.40775 1.89547L1.56119 1.02159L1.34314 1.66692C0.88138 3.10546 1.17639 4.62468 2.13839 5.64645C2.65145 6.21111 2.53601 6.29178 1.65098 5.95567C1.34314 5.84811 1.07378 5.76745 1.04813 5.80778C0.95834 5.90189 1.26618 7.12533 1.50988 7.60932C1.84337 8.28154 2.52319 8.94032 3.26713 9.3302L3.89563 9.63942L3.15169 9.65287C2.4334 9.65287 2.40775 9.66631 2.4847 9.94864C2.74124 10.8225 3.75454 11.7502 4.88328 12.1535L5.67853 12.4358L4.98589 12.8661C3.95976 13.4845 2.75406 13.8341 1.54836 13.861C0.971166 13.8744 0.496582 13.9282 0.496582 13.9685C0.496582 14.103 2.06143 14.8558 2.97212 15.1516C5.70418 16.0255 8.94931 15.6491 11.3864 14.1567C13.118 13.0946 14.8495 10.9839 15.6576 8.94032C16.0937 7.85132 16.5298 5.86156 16.5298 4.90701C16.5298 4.28857 16.5683 4.2079 17.2866 3.46846C17.7099 3.03824 18.1075 2.56769 18.1845 2.43324C18.3127 2.1778 18.2999 2.1778 17.6457 2.40636C16.5555 2.80969 16.4016 2.75591 16.9403 2.15091C17.3379 1.72069 17.8125 0.940922 17.8125 0.712367C17.8125 0.672034 17.6201 0.739256 17.402 0.860255C17.1712 0.994699 16.6581 1.19636 16.2733 1.31736L15.5807 1.54592L14.9522 1.10225C14.6058 0.860255 14.1184 0.591369 13.8619 0.510702C13.2077 0.322481 12.2073 0.34937 11.6172 0.56448C10.0139 1.16948 9.00062 2.72902 9.11606 4.43645Z" fill="white"/>
</svg>
