<svg width="54" height="54" viewBox="0 0 54 54" fill="none" xmlns="http://www.w3.org/2000/svg">
<path d="M45 47.25C45 44.11 45 42.54 44.6125 41.2624C43.7399 38.386 41.489 36.1351 38.6126 35.2625C37.335 34.875 35.765 34.875 32.625 34.875H21.375C18.235 34.875 16.665 34.875 15.3874 35.2625C12.511 36.1351 10.2601 38.386 9.38754 41.2624C9 42.54 9 44.11 9 47.25M37.125 16.875C37.125 22.4669 32.5919 27 27 27C21.4081 27 16.875 22.4669 16.875 16.875C16.875 11.2831 21.4081 6.75 27 6.75C32.5919 6.75 37.125 11.2831 37.125 16.875Z" stroke="black" stroke-width="6" stroke-linecap="round" stroke-linejoin="round"/>
</svg>
